<svg width="24" height="24" viewBox="0 0 24 24" fill="none" xmlns="http://www.w3.org/2000/svg">
<path d="M12.0026 5.8467C8.59756 5.8467 5.84956 8.5947 5.84956 11.9997C5.84956 15.4047 8.59756 18.1527 12.0026 18.1527C15.4076 18.1527 18.1556 15.4047 18.1556 11.9997C18.1556 8.5947 15.4076 5.8467 12.0026 5.8467ZM12.0026 15.9987C9.80056 15.9987 8.00356 14.2017 8.00356 11.9997C8.00356 9.7977 9.80056 8.0007 12.0026 8.0007C14.2046 8.0007 16.0016 9.7977 16.0016 11.9997C16.0016 14.2017 14.2046 15.9987 12.0026 15.9987ZM18.4076 4.1607C17.6126 4.1607 16.9706 4.8027 16.9706 5.5977C16.9706 6.3927 17.6126 7.0347 18.4076 7.0347C19.2026 7.0347 19.8446 6.3957 19.8446 5.5977C19.8448 5.40893 19.8078 5.22196 19.7357 5.04751C19.6635 4.87306 19.5577 4.71455 19.4242 4.58106C19.2907 4.44758 19.1322 4.34174 18.9578 4.26961C18.7833 4.19747 18.5963 4.16047 18.4076 4.1607ZM23.9966 11.9997C23.9966 10.3437 24.0116 8.7027 23.9186 7.0497C23.8256 5.1297 23.3876 3.4257 21.9836 2.0217C20.5766 0.614705 18.8756 0.179705 16.9556 0.0867048C15.2996 -0.00629521 13.6586 0.00870483 12.0056 0.00870483C10.3496 0.00870483 8.70856 -0.00629521 7.05556 0.0867048C5.13556 0.179705 3.43156 0.617705 2.02756 2.0217C0.620564 3.4287 0.185564 5.1297 0.0925642 7.0497C-0.000435834 8.7057 0.0145642 10.3467 0.0145642 11.9997C0.0145642 13.6527 -0.000435834 15.2967 0.0925642 16.9497C0.185564 18.8697 0.623564 20.5737 2.02756 21.9777C3.43456 23.3847 5.13556 23.8197 7.05556 23.9127C8.71156 24.0057 10.3526 23.9907 12.0056 23.9907C13.6616 23.9907 15.3026 24.0057 16.9556 23.9127C18.8756 23.8197 20.5796 23.3817 21.9836 21.9777C23.3906 20.5707 23.8256 18.8697 23.9186 16.9497C24.0146 15.2967 23.9966 13.6557 23.9966 11.9997ZM21.3566 19.0737C21.1376 19.6197 20.8736 20.0277 20.4506 20.4477C20.0276 20.8707 19.6226 21.1347 19.0766 21.3537C17.4986 21.9807 13.7516 21.8397 12.0026 21.8397C10.2536 21.8397 6.50356 21.9807 4.92556 21.3567C4.37956 21.1377 3.97156 20.8737 3.55156 20.4507C3.12856 20.0277 2.86456 19.6227 2.64556 19.0767C2.02156 17.4957 2.16256 13.7487 2.16256 11.9997C2.16256 10.2507 2.02156 6.5007 2.64556 4.9227C2.86456 4.3767 3.12856 3.9687 3.55156 3.5487C3.97456 3.1287 4.37956 2.8617 4.92556 2.6427C6.50356 2.0187 10.2536 2.1597 12.0026 2.1597C13.7516 2.1597 17.5016 2.0187 19.0796 2.6427C19.6256 2.8617 20.0336 3.1257 20.4536 3.5487C20.8766 3.9717 21.1406 4.3767 21.3596 4.9227C21.9836 6.5007 21.8426 10.2507 21.8426 11.9997C21.8426 13.7487 21.9836 17.4957 21.3566 19.0737Z" fill="#E61F5A"/>
</svg>
