<svg width="24" height="20" viewBox="0 0 24 20" fill="none" xmlns="http://www.w3.org/2000/svg">
<g clip-path="url(#clip0_1241_612)">
<path d="M24.0014 2.46499C23.1198 2.85093 22.1603 3.12868 21.1721 3.23686C22.1981 2.6183 22.9665 1.64107 23.333 0.488518C22.3702 1.06973 21.3155 1.47729 20.2156 1.69311C19.7559 1.19439 19.1999 0.797093 18.5823 0.525965C17.9646 0.254836 17.2986 0.115691 16.6257 0.1172C13.903 0.1172 11.7133 2.35681 11.7133 5.10515C11.7133 5.49109 11.7594 5.87703 11.8343 6.24835C7.75747 6.03199 4.12146 4.05552 1.70417 1.02942C1.26372 1.79286 1.0329 2.66213 1.03575 3.54678C1.03575 5.27766 1.90297 6.80386 3.22542 7.70146C2.44608 7.67032 1.68499 7.45294 1.00405 7.067V7.1284C1.00405 9.55221 2.69241 11.5608 4.94259 12.0228C4.52009 12.1342 4.08547 12.1911 3.64895 12.1924C3.32914 12.1924 3.02662 12.1602 2.72122 12.1164C3.34355 14.0928 5.15579 15.5284 7.31378 15.5752C5.62542 16.9172 3.51066 17.7066 1.21438 17.7066C0.802374 17.7066 0.422061 17.692 0.0273438 17.6452C2.20549 19.0632 4.78989 19.8819 7.57308 19.8819C16.6084 19.8819 21.5524 12.2859 21.5524 5.69283C21.5524 5.47647 21.5524 5.26011 21.538 5.04375C22.4946 4.33328 23.333 3.45322 24.0014 2.46499Z" fill="#21A6DF"/>
</g>
<defs>
<clipPath id="clip0_1241_612">
<rect width="24" height="19.7647" fill="white" transform="translate(0 0.117188)"/>
</clipPath>
</defs>
</svg>
