<svg width="24" height="18" viewBox="0 0 24 18" fill="none" xmlns="http://www.w3.org/2000/svg">
<g clip-path="url(#clip0_1241_614)">
<path d="M23.4699 2.93081C23.3335 2.39785 23.0663 1.91191 22.6951 1.52163C22.324 1.13136 21.8619 0.850436 21.355 0.70698C19.4884 0.175781 11.9879 0.175781 11.9879 0.175781C11.9879 0.175781 4.48729 0.175781 2.62071 0.70698C2.11385 0.850436 1.65172 1.13136 1.28057 1.52163C0.90941 1.91191 0.642248 2.39785 0.50582 2.93081C0.157288 4.9325 -0.0118455 6.96416 0.000644257 8.99907C-0.0118455 11.034 0.157288 13.0657 0.50582 15.0673C0.642248 15.6003 0.90941 16.0862 1.28057 16.4765C1.65172 16.8668 2.11385 17.1477 2.62071 17.2912C4.48729 17.8224 11.9879 17.8224 11.9879 17.8224C11.9879 17.8224 19.4884 17.8224 21.355 17.2912C21.8619 17.1477 22.324 16.8668 22.6951 16.4765C23.0663 16.0862 23.3335 15.6003 23.4699 15.0673C23.8184 13.0657 23.9876 11.034 23.9751 8.99907C23.9876 6.96416 23.8184 4.9325 23.4699 2.93081ZM9.59041 12.7805V5.21766L15.8152 8.99907L9.59041 12.7805Z" fill="#E42F08"/>
</g>
<defs>
<clipPath id="clip0_1241_614">
<rect width="24" height="17.6842" fill="white" transform="translate(0 0.15625)"/>
</clipPath>
</defs>
</svg>
